<?xml version="1.0" encoding="utf-8"?>
<svg x="-1.3797e-06px" y="-1.28498e-05px" width="1024px" height="1024px" viewBox="-1.3797e-06 -1.28498e-05 1024 1024" xmlns="http://www.w3.org/2000/svg" xmlns:xlink="http://www.w3.org/1999/xlink">
  <!--Generated by AMDN-->
  <path id="Path" style="fill:#f6ede4;fill-opacity:1;fill-rule:evenodd;opacity:1;stroke:none;" d="M-1.3797e-06,-1.28498e-05 C-1.3797e-06,-1.28498e-05,1024,-1.28498e-05,1024,-1.28498e-05 C1024,-1.28498e-05,1024,1024,1024,1024 C1024,1024,-1.3797e-06,1024,-1.3797e-06,1024 C-1.3797e-06,1024,-1.3797e-06,-1.28498e-05,-1.3797e-06,-1.28498e-05 z"/>
  <path id="Path" style="fill:#aaaaaa;fill-opacity:1;fill-rule:nonzero;opacity:1;stroke:#777f7b;stroke-linecap:butt;stroke-linejoin:miter;stroke-miterlimit:10;stroke-opacity:1;stroke-width:1;" d="M258.773,432.881"/>
  <path id="Path" style="fill:#aaaaaa;fill-opacity:1;fill-rule:nonzero;opacity:1;stroke:#777f7b;stroke-linecap:butt;stroke-linejoin:miter;stroke-miterlimit:10;stroke-opacity:1;stroke-width:1;" d="M254.648,434.833"/>
  <path id="Path" style="fill:none;opacity:1;stroke:#777f7b;stroke-linecap:butt;stroke-linejoin:round;stroke-miterlimit:10;stroke-opacity:1;stroke-width:10;" d="M255.243,434.25 C255.243,434.25,327.599,559.95,466.471,516.017 C605.342,472.084,550.092,307.381,550.092,307.381 C550.092,307.381,569.595,162.343,470.828,116.213 C372.061,70.0835,308.754,99.6986,276.314,121.207 C243.873,142.715,216.966,165.789,195.005,210.076 C173.043,254.362,191.268,324.784,201.252,348.463 C201.252,348.463,168.6,378.206,197.606,417.999 C226.611,457.792,255.243,434.25,255.243,434.25 z"/>
  <path id="Path" style="fill:none;opacity:1;stroke:#777f7b;stroke-linecap:round;stroke-linejoin:miter;stroke-miterlimit:10;stroke-opacity:1;stroke-width:10;" d="M441.797,404.06 C456.625,403.281,466.391,399.289,473.451,394.413"/>
  <path id="Path" style="fill:none;opacity:1;stroke:#777f7b;stroke-linecap:round;stroke-linejoin:miter;stroke-miterlimit:10;stroke-opacity:1;stroke-width:10;" d="M338.627,365.09 C338.627,365.09,366.238,390.149,396.025,352.739"/>
  <path id="Path" style="fill:none;opacity:1;stroke:#777f7b;stroke-linecap:round;stroke-linejoin:miter;stroke-miterlimit:10;stroke-opacity:1;stroke-width:10;" d="M327.596,320.925"/>
  <path id="Path" style="fill:none;opacity:1;stroke:#777f7b;stroke-linecap:round;stroke-linejoin:miter;stroke-miterlimit:10;stroke-opacity:1;stroke-width:10;" d="M327.085,321.737 C327.085,321.737,342.564,297.336,382.819,304.623"/>
  <path id="Path" style="fill:none;opacity:1;stroke:#777f7b;stroke-linecap:round;stroke-linejoin:miter;stroke-miterlimit:10;stroke-opacity:1;stroke-width:10;" d="M472.596,338.3 C472.596,338.3,500.466,365.799,523.398,331.452"/>
  <path id="Path" style="fill:none;opacity:1;stroke:#777f7b;stroke-linecap:round;stroke-linejoin:miter;stroke-miterlimit:10;stroke-opacity:1;stroke-width:10;" d="M470.481,296.06 C470.481,296.06,491.224,278.773,516.373,284.399"/>
  <path id="Path" style="fill:none;opacity:1;stroke:#777f7b;stroke-linecap:round;stroke-linejoin:miter;stroke-miterlimit:10;stroke-opacity:1;stroke-width:10;" d="M298.72,483.813 C298.72,483.813,255.345,546.784,250.916,594.266"/>
  <path id="Path" style="fill:none;opacity:1;stroke:#777f7b;stroke-linecap:round;stroke-linejoin:round;stroke-miterlimit:10;stroke-opacity:1;stroke-width:10;" d="M632.365,917.387 C526.395,916.949,490.729,848.991,435.077,770.523 C379.425,692.056,309.261,633.253,251.406,594.401 C193.552,555.549,138.208,537.763,138.208,537.763 C138.208,537.763,156.088,749.279,290.738,848.99 C480.202,989.292,632.365,917.387,632.365,917.387 z"/>
  <path id="Path" style="fill:none;opacity:1;stroke:#777f7b;stroke-linecap:round;stroke-linejoin:miter;stroke-miterlimit:10;stroke-opacity:1;stroke-width:10;" d="M265.088,699.564 C265.088,699.564,439.85,944.56,632.708,917.723"/>
  <path id="Path" style="fill:none;opacity:1;stroke:#777f7b;stroke-linecap:round;stroke-linejoin:round;stroke-miterlimit:10;stroke-opacity:1;stroke-width:10;" d="M765.391,370.414 C765.391,370.414,1006.66,847.393,607.849,918.802"/>
  <path id="Path" style="fill:none;opacity:1;stroke:#777f7b;stroke-linecap:round;stroke-linejoin:miter;stroke-miterlimit:10;stroke-opacity:1;stroke-width:10;" d="M614.107,919.215"/>
  <path id="Path" style="fill:none;opacity:1;stroke:#777f7b;stroke-linecap:round;stroke-linejoin:miter;stroke-miterlimit:10;stroke-opacity:1;stroke-width:10;" d="M687.241,210.208"/>
  <path id="Path" style="fill:none;opacity:1;stroke:#777f7b;stroke-linecap:round;stroke-linejoin:miter;stroke-miterlimit:10;stroke-opacity:1;stroke-width:10;" d="M688.497,211.715"/>
  <path id="Path" style="fill:none;opacity:1;stroke:#777f7b;stroke-linecap:round;stroke-linejoin:miter;stroke-miterlimit:10;stroke-opacity:1;stroke-width:10;" d="M687.44,211.261 C687.44,211.261,683.79,395.268,744.278,484.589 C804.766,573.91,835.932,643.413,819.847,733.213 C803.761,823.013,700.021,904.76,605.906,919.831"/>
  <path id="Path" style="fill:none;opacity:1;stroke:#777f7b;stroke-linecap:round;stroke-linejoin:miter;stroke-miterlimit:10;stroke-opacity:1;stroke-width:10;" d="M422.698,450.199 C422.698,450.199,448.219,467.919,481.702,444.272"/>
  <path id="Path" style="fill:none;opacity:1;stroke:#777f7b;stroke-linecap:round;stroke-linejoin:miter;stroke-miterlimit:10;stroke-opacity:1;stroke-width:10;" d="M234.369,362.658 C234.369,362.658,221.762,343.748,201.74,348.532"/>
  <path id="Path" style="fill:none;opacity:1;stroke:#777f7b;stroke-linecap:round;stroke-linejoin:miter;stroke-miterlimit:10;stroke-opacity:1;stroke-width:10;" d="M514.05,872.34 C514.05,872.34,549.885,890.478,600.636,822.875 C615.229,791.751,638.019,730.113,640.835,697.43"/>
  <path id="Path" style="fill:none;opacity:1;stroke:#777f7b;stroke-linecap:round;stroke-linejoin:round;stroke-miterlimit:10;stroke-opacity:1;stroke-width:10;" d="M400.886,589.557 C400.886,589.557,475.248,665.09,481.337,661.402 C499.033,650.682,528.954,624.081,541.613,611.405 C554.271,598.729,617.238,509.757,688.836,545.839 C725.522,589.081,665.842,636.312,665.842,636.312 C665.842,636.312,635.789,653.903,612.29,664.806 C591.621,691.418,536.881,763.373,501.123,774.035 C465.365,784.697,446.126,774.364,434.498,769.245"/>
  <path id="Path" style="fill:none;opacity:1;stroke:#777f7b;stroke-linecap:round;stroke-linejoin:miter;stroke-miterlimit:10;stroke-opacity:1;stroke-width:10;" d="M472.033,515.453 C472.033,515.453,535.891,596.742,540.658,610.478"/>
  <path id="Path" style="fill:none;opacity:1;stroke:#777f7b;stroke-linecap:round;stroke-linejoin:miter;stroke-miterlimit:10;stroke-opacity:1;stroke-width:10;" d="M689.492,211.278 C689.492,211.278,848.741,314.889,871.678,424.418 C894.615,533.947,907.909,745.188,720.615,879.379"/>
  <path id="Path" style="fill:none;opacity:1;stroke:#777f7b;stroke-linecap:round;stroke-linejoin:miter;stroke-miterlimit:10;stroke-opacity:1;stroke-width:10;" d="M641.737,697.286 C641.737,697.286,676.218,757.244,677.471,771.57 C678.724,785.897,681.25,818.373,696.248,826.028 C711.246,833.683,770.203,801.116,770.203,801.116 C780.823,793.094,803.491,784.567,802.578,757.87 C801.665,731.173,764.999,753.452,755.785,747.858 C746.57,742.263,731.386,720.976,731.307,669.329 C731.228,617.682,708.412,610.224,697.754,596.377"/>
  <path id="Path" style="fill:none;opacity:1;stroke:#777f7b;stroke-linecap:round;stroke-linejoin:round;stroke-miterlimit:10;stroke-opacity:1;stroke-width:10;" d="M595.569,927.237 C595.569,927.237,696.438,899.507,725.061,875.832"/>
  <path id="Path" style="fill:none;opacity:1;stroke:#777f7b;stroke-linecap:round;stroke-linejoin:round;stroke-miterlimit:10;stroke-opacity:1;stroke-width:10;" d="M606.493,926.023 C599.877,928.357,687.269,901.474,700.377,891.052"/>
</svg>
