<?xml version="1.0" encoding="utf-8"?>
<svg x="300.171px" y="126.317px" width="564.011px" height="636.443px" viewBox="300.171 126.317 564.011 636.443" xmlns="http://www.w3.org/2000/svg" xmlns:xlink="http://www.w3.org/1999/xlink">
  <!--Generated by AMDN-->
  <path id="Path" style="fill:none;opacity:1;stroke:#b3bfb9;stroke-linecap:butt;stroke-linejoin:round;stroke-miterlimit:10;stroke-opacity:1;stroke-width:10;" d="M392.034,385.465 C392.034,385.465,445.736,478.759,548.805,446.152 C651.873,413.546,610.868,291.305,610.868,291.305 C610.868,291.305,625.342,183.66,552.039,149.423 C478.735,115.186,431.749,137.166,407.673,153.129 C383.596,169.092,363.625,186.217,347.326,219.086 C331.027,251.955,344.553,304.221,351.963,321.795 C351.963,321.795,327.729,343.871,349.256,373.404 C370.784,402.938,392.034,385.465,392.034,385.465 z"/>
  <path id="Path" style="fill:none;opacity:1;stroke:#b3bfb9;stroke-linecap:round;stroke-linejoin:miter;stroke-miterlimit:10;stroke-opacity:1;stroke-width:10;" d="M530.492,363.059 C541.497,362.481,548.745,359.518,553.985,355.899"/>
  <path id="Path" style="fill:none;opacity:1;stroke:#b3bfb9;stroke-linecap:round;stroke-linejoin:miter;stroke-miterlimit:10;stroke-opacity:1;stroke-width:10;" d="M453.921,334.136 C453.921,334.136,474.413,352.734,496.521,324.969"/>
  <path id="Path" style="fill:none;opacity:1;stroke:#b3bfb9;stroke-linecap:round;stroke-linejoin:miter;stroke-miterlimit:10;stroke-opacity:1;stroke-width:10;" d="M445.355,301.96 C445.355,301.96,456.843,283.85,486.72,289.258"/>
  <path id="Path" style="fill:none;opacity:1;stroke:#b3bfb9;stroke-linecap:round;stroke-linejoin:miter;stroke-miterlimit:10;stroke-opacity:1;stroke-width:10;" d="M553.351,314.253 C553.351,314.253,574.036,334.662,591.055,309.171"/>
  <path id="Path" style="fill:none;opacity:1;stroke:#b3bfb9;stroke-linecap:round;stroke-linejoin:miter;stroke-miterlimit:10;stroke-opacity:1;stroke-width:10;" d="M551.781,282.902 C551.781,282.902,567.176,270.072,585.841,274.248"/>
  <path id="Path" style="fill:none;opacity:1;stroke:#b3bfb9;stroke-linecap:round;stroke-linejoin:miter;stroke-miterlimit:10;stroke-opacity:1;stroke-width:10;" d="M424.303,422.251 C424.303,422.251,392.11,468.987,388.822,504.227"/>
  <path id="Path" style="fill:none;opacity:1;stroke:#b3bfb9;stroke-linecap:round;stroke-linejoin:round;stroke-miterlimit:10;stroke-opacity:1;stroke-width:10;" d="M671.929,744.044 C593.279,743.718,566.809,693.281,525.505,635.043 C484.2,576.806,432.125,533.163,389.186,504.328 C346.248,475.492,305.172,462.292,305.172,462.292 C305.172,462.292,318.443,619.276,418.378,693.281 C558.995,797.411,671.929,744.044,671.929,744.044 z"/>
  <path id="Path" style="fill:none;opacity:1;stroke:#b3bfb9;stroke-linecap:round;stroke-linejoin:miter;stroke-miterlimit:10;stroke-opacity:1;stroke-width:10;" d="M399.341,582.378 C399.341,582.378,529.047,764.211,672.184,744.293"/>
  <path id="Path" style="fill:none;opacity:1;stroke:#b3bfb9;stroke-linecap:round;stroke-linejoin:round;stroke-miterlimit:10;stroke-opacity:1;stroke-width:10;" d="M770.659,338.087 C770.659,338.087,949.724,692.095,653.734,745.094"/>
  <path id="Path" style="fill:none;opacity:1;stroke:#b3bfb9;stroke-linecap:round;stroke-linejoin:miter;stroke-miterlimit:10;stroke-opacity:1;stroke-width:10;" d="M712.806,219.966 C712.806,219.966,710.096,356.534,754.99,422.826 C799.883,489.119,823.014,540.704,811.076,607.352 C799.138,674,722.143,734.672,652.292,745.858"/>
  <path id="Path" style="fill:none;opacity:1;stroke:#b3bfb9;stroke-linecap:round;stroke-linejoin:miter;stroke-miterlimit:10;stroke-opacity:1;stroke-width:10;" d="M516.317,397.303 C516.317,397.303,535.259,410.454,560.109,392.904"/>
  <path id="Path" style="fill:none;opacity:1;stroke:#b3bfb9;stroke-linecap:round;stroke-linejoin:miter;stroke-miterlimit:10;stroke-opacity:1;stroke-width:10;" d="M376.542,332.331 C376.542,332.331,367.185,318.296,352.325,321.846"/>
  <path id="Path" style="fill:none;opacity:1;stroke:#b3bfb9;stroke-linecap:round;stroke-linejoin:miter;stroke-miterlimit:10;stroke-opacity:1;stroke-width:10;" d="M584.117,710.61 C584.117,710.61,610.714,724.072,648.38,673.899 C659.212,650.799,676.125,605.052,678.215,580.794"/>
  <path id="Path" style="fill:none;opacity:1;stroke:#b3bfb9;stroke-linecap:round;stroke-linejoin:round;stroke-miterlimit:10;stroke-opacity:1;stroke-width:10;" d="M500.129,500.732 C500.129,500.732,555.319,556.792,559.838,554.055 C572.972,546.098,595.179,526.355,604.574,516.948 C613.969,507.54,660.702,441.506,713.841,468.286 C741.069,500.379,696.776,535.433,696.776,535.433 C696.776,535.433,674.47,548.489,657.03,556.581 C641.689,576.332,601.062,629.737,574.523,637.65 C547.984,645.563,533.705,637.894,525.075,634.094"/>
  <path id="Path" style="fill:none;opacity:1;stroke:#b3bfb9;stroke-linecap:round;stroke-linejoin:miter;stroke-miterlimit:10;stroke-opacity:1;stroke-width:10;" d="M552.933,445.734 C552.933,445.734,600.327,506.065,603.865,516.26"/>
  <path id="Path" style="fill:none;opacity:1;stroke:#b3bfb9;stroke-linecap:round;stroke-linejoin:miter;stroke-miterlimit:10;stroke-opacity:1;stroke-width:10;" d="M714.328,219.979 C714.328,219.979,832.521,296.877,849.544,378.168 C866.568,459.459,876.435,616.24,737.428,715.835"/>
  <path id="Path" style="fill:none;opacity:1;stroke:#b3bfb9;stroke-linecap:round;stroke-linejoin:miter;stroke-miterlimit:10;stroke-opacity:1;stroke-width:10;" d="M678.885,580.688 C678.885,580.688,704.476,625.187,705.406,635.821 C706.336,646.454,708.211,670.557,719.343,676.238 C730.474,681.92,774.231,657.749,774.231,657.749 C782.113,651.795,798.937,645.467,798.259,625.652 C797.582,605.838,770.368,622.373,763.53,618.221 C756.691,614.069,745.421,598.27,745.363,559.938 C745.305,521.607,728.371,516.071,720.46,505.794"/>
  <path id="Path" style="fill:none;opacity:1;stroke:#b3bfb9;stroke-linecap:round;stroke-linejoin:round;stroke-miterlimit:10;stroke-opacity:1;stroke-width:10;" d="M644.62,751.354 C644.62,751.354,719.483,730.773,740.727,713.202"/>
  <path id="Path" style="fill:none;opacity:1;stroke:#b3bfb9;stroke-linecap:round;stroke-linejoin:round;stroke-miterlimit:10;stroke-opacity:1;stroke-width:10;" d="M652.728,750.454 C647.817,752.186,712.679,732.233,722.407,724.498"/>
</svg>
